<?xml version="1.0" encoding="UTF-8" standalone="no"?>
<svg
   width="40"
   viewBox="0 0 900 900"
   height="40"
   version="1.0"
   id="svg8"
   sodipodi:docname="icon.svg"
   inkscape:version="1.3 (0e150ed, 2023-07-21)"
   xmlns:inkscape="http://www.inkscape.org/namespaces/inkscape"
   xmlns:sodipodi="http://sodipodi.sourceforge.net/DTD/sodipodi-0.dtd"
   xmlns="http://www.w3.org/2000/svg"
   xmlns:svg="http://www.w3.org/2000/svg">
  <path
     d="m 360.17648,375.81518 c -44.6727,0 -81.0119,36.34923 -81.0119,81.03196 0,44.68273 36.3392,81.03196 81.0119,81.03196 44.66936,0 81.0119,-36.34923 81.0119,-81.03196 0,-44.68273 -36.34254,-81.03196 -81.0119,-81.03196 z m 0,135.05438 c -29.78069,0 -54.00905,-24.23505 -54.00905,-54.02242 0,-29.78737 24.22836,-54.02242 54.00905,-54.02242 29.78069,0 54.00571,24.23505 54.00571,54.02242 0,29.78737 -24.22502,54.02242 -54.00571,54.02242 z m 0,0"
     id="path5"
     style="stroke-width:0.855748;fill:#000000;fill-opacity:1" />
  <path
     d="m 386.60104,413.23075 -56.4125,49.61665 h 23.34253 l -13.61508,41.8347 54.467,-51.56214 h -23.34252 z m 0,0"
     id="path6"
     style="stroke-width:0.855748;fill:#000000;fill-opacity:1" />
  <path
     d="M 971.49609,166.09766 851.35547,118.02734 C 832.42578,61.816406 779.26953,21.207031 716.77734,21.207031 H 527.44141 c -78.29688,0 -142,63.71875 -142,142.039059 v 370.875 c 0,47.86328 38.92968,86.80078 86.77734,86.80078 h 213 v 126.25391 c 0,78.32031 63.70312,142.03906 142,142.03906 78.30078,0 142,-63.71875 142,-142.03906 V 461.10156 c 27.19141,-7.02344 47.33595,-31.76562 47.33595,-61.1289 v -167.3086 c 0,-29.48828 -17.68751,-55.61328 -45.05861,-66.5664 z m -554.5,-2.85157 c 0,-60.91796 49.54688,-110.472652 110.44532,-110.472652 h 189.33593 c 60.89844,0 110.44141,49.554692 110.44141,110.472652 V 305.28125 H 416.99609 Z m 55.22266,426.10938 c -30.44922,0 -55.22266,-24.77735 -55.22266,-55.23438 V 336.84766 h 410.22266 v 197.27343 c 0,30.45703 -24.77344,55.23438 -55.22266,55.23438 z m 465.44531,157.82031 c 0,60.91797 -49.54297,110.47266 -110.44531,110.47266 -60.89844,0 -110.44141,-49.55469 -110.44141,-110.47266 V 620.92187 h 55.21875 c 47.85157,0 86.78125,-38.9375 86.78125,-86.80078 v -271.7539 l 31.55469,7.89062 v 129.71485 c 0,29.36328 20.14453,54.10546 47.33203,61.1289 z m 47.33203,-347.20312 c 0,17.40625 -14.15625,31.5664 -31.55468,31.5664 -17.39844,0 -31.55469,-14.16015 -31.55469,-31.5664 v -15.78125 h 63.10937 z m 0,-47.34375 H 921.88672 V 257.9375 c 0,-7.24219 -4.92578,-13.55469 -11.95313,-15.3125 l -51.15625,-12.79297 v -74.83984 l 101,40.41015 c 15.32032,6.13282 25.21875,20.75782 25.21875,37.26172 z"
     id="path7"
     clip-path="url(#clipPath8)"
     transform="translate(-253.47913,-3.0063558)"
     sodipodi:nodetypes="ccssssscssscsscssssccsssccsssssscssccscssssccsccsccccsc"
     style="fill:#000000;fill-opacity:1;stroke:none;stroke-opacity:1" />
  <path
     d="m 447.88288,144.35545 h -3.52524 c -2.13567,-13.02855 -13.4726,-23.00009 -27.09322,-23.00009 H 299.94399 c -15.13705,0 -27.4527,12.31867 -27.4527,27.46176 v 67.12439 c 0,15.14006 12.31565,27.45874 27.4527,27.45874 h 117.32043 c 15.13704,0 27.4527,-12.31868 27.4527,-27.45874 v -1.1781 h 3.16576 c 10.93214,0 19.82829,-8.89615 19.82829,-19.83131 v -30.74232 c 0,-10.93818 -8.89615,-19.83433 -19.82829,-19.83433 z m -126.58511,74.63703 h -21.35378 c -1.68256,0 -3.05097,-1.36841 -3.05097,-3.05097 v -67.12439 c 0,-1.68257 1.36841,-3.05097 3.05097,-3.05097 h 21.35378 z m 48.80346,0 H 345.6995 v -73.22633 h 24.40173 z m 73.20821,-28.63684 h -10.79319 c -6.73932,0 -12.20086,5.46456 -12.20086,12.20388 v 13.38199 c 0,1.68256 -1.36841,3.05097 -3.05097,3.05097 h -22.76146 v -73.22633 h 22.76146 c 1.68256,0 3.05097,1.3684 3.05097,3.05097 v 7.74222 c 0,6.73932 5.46154,12.20388 12.20086,12.20388 h 10.79319 z m 0,0"
     id="path8"
     inkscape:label="path8"
     style="fill:#000000;fill-opacity:1;stroke:#000000;stroke-width:0;stroke-dasharray:none;stroke-opacity:1" />
</svg>
