<svg xmlns="http://www.w3.org/2000/svg" width="50" viewBox="0 0 1125 900" height="50" version="1.0">
	<defs>
		<clipPath id="a">
			<path d="M 164.554688 21 L 1016.554688 21 L 1016.554688 889.460938 L 164.554688 889.460938 Z M 164.554688 21"/>
		</clipPath>
	</defs>
	<path fill="#FFF" d="M-112.5 -90H1237.5V990H-112.5z"/>
	<path fill="#FFF" d="M-112.5 -90H1237.5V990H-112.5z"/>
	<path fill="#FFF" d="M-112.5 -90H1237.5V990H-112.5z"/>
	<path d="M 622.109375 368.410156 C 569.90625 368.410156 527.441406 410.886719 527.441406 463.101562 C 527.441406 515.316406 569.90625 557.792969 622.109375 557.792969 C 674.308594 557.792969 716.777344 515.316406 716.777344 463.101562 C 716.777344 410.886719 674.308594 368.410156 622.109375 368.410156 Z M 622.109375 526.230469 C 587.308594 526.230469 558.996094 497.910156 558.996094 463.101562 C 558.996094 428.292969 587.308594 399.972656 622.109375 399.972656 C 656.910156 399.972656 685.21875 428.292969 685.21875 463.101562 C 685.21875 497.910156 656.910156 526.230469 622.109375 526.230469 Z M 622.109375 526.230469"/>
	<path d="M 652.988281 412.132812 L 587.066406 470.113281 L 614.34375 470.113281 L 598.433594 519 L 662.082031 458.746094 L 634.804688 458.746094 Z M 652.988281 412.132812"/>
	<g clip-path="url(#a)">
		<path d="M 971.496094 166.097656 L 851.355469 118.027344 C 832.425781 61.816406 779.269531 21.207031 716.777344 21.207031 L 527.441406 21.207031 C 449.144531 21.207031 385.441406 84.925781 385.441406 163.246094 L 385.441406 534.121094 C 385.441406 581.984375 424.371094 620.921875 472.21875 620.921875 L 527.441406 620.921875 L 527.441406 731.394531 C 527.441406 801.011719 470.820312 857.648438 401.21875 857.648438 C 331.621094 857.648438 274.996094 801.011719 274.996094 731.394531 L 274.996094 461.515625 C 310.960938 454.179688 338.109375 422.300781 338.109375 384.191406 L 338.109375 344.664062 C 347.667969 337.457031 353.886719 326.042969 353.886719 313.171875 C 353.886719 291.417969 336.191406 273.71875 314.441406 273.71875 L 306.554688 273.71875 L 306.554688 242.15625 C 306.554688 233.441406 299.488281 226.375 290.777344 226.375 C 282.0625 226.375 274.996094 233.441406 274.996094 242.15625 L 274.996094 273.71875 L 243.441406 273.71875 L 243.441406 242.15625 C 243.441406 233.441406 236.378906 226.375 227.664062 226.375 C 218.953125 226.375 211.886719 233.441406 211.886719 242.15625 L 211.886719 273.71875 L 203.996094 273.71875 C 182.25 273.71875 164.554688 291.417969 164.554688 313.171875 C 164.554688 326.042969 170.773438 337.457031 180.332031 344.664062 L 180.332031 384.191406 C 180.332031 422.300781 207.480469 454.183594 243.441406 461.515625 L 243.441406 731.394531 C 243.441406 818.414062 314.222656 889.214844 401.21875 889.214844 C 488.21875 889.214844 558.996094 818.414062 558.996094 731.394531 L 558.996094 620.921875 L 685.21875 620.921875 L 685.21875 747.175781 C 685.21875 825.496094 748.921875 889.214844 827.21875 889.214844 C 905.519531 889.214844 969.21875 825.496094 969.21875 747.175781 L 969.21875 461.101562 C 996.410156 454.078125 1016.554688 429.335938 1016.554688 399.972656 L 1016.554688 232.664062 C 1016.554688 203.175781 998.867188 177.050781 971.496094 166.097656 Z M 196.109375 313.171875 C 196.109375 308.820312 199.648438 305.28125 203.996094 305.28125 L 314.441406 305.28125 C 318.792969 305.28125 322.332031 308.820312 322.332031 313.171875 C 322.332031 317.527344 318.792969 321.066406 314.441406 321.066406 L 203.996094 321.066406 C 199.648438 321.066406 196.109375 317.527344 196.109375 313.171875 Z M 211.886719 384.191406 L 211.886719 352.628906 L 306.554688 352.628906 L 306.554688 384.191406 C 306.554688 410.296875 285.320312 431.539062 259.21875 431.539062 C 233.121094 431.539062 211.886719 410.296875 211.886719 384.191406 Z M 416.996094 163.246094 C 416.996094 102.328125 466.542969 52.773438 527.441406 52.773438 L 716.777344 52.773438 C 777.675781 52.773438 827.21875 102.328125 827.21875 163.246094 L 827.21875 305.28125 L 416.996094 305.28125 Z M 472.21875 589.355469 C 441.769531 589.355469 416.996094 564.578125 416.996094 534.121094 L 416.996094 336.847656 L 827.21875 336.847656 L 827.21875 534.121094 C 827.21875 564.578125 802.445312 589.355469 771.996094 589.355469 Z M 937.664062 747.175781 C 937.664062 808.09375 888.121094 857.648438 827.21875 857.648438 C 766.320312 857.648438 716.777344 808.09375 716.777344 747.175781 L 716.777344 620.921875 L 771.996094 620.921875 C 819.847656 620.921875 858.777344 581.984375 858.777344 534.121094 L 858.777344 262.367188 L 890.332031 270.257812 L 890.332031 399.972656 C 890.332031 429.335938 910.476562 454.078125 937.664062 461.101562 Z M 984.996094 399.972656 C 984.996094 417.378906 970.839844 431.539062 953.441406 431.539062 C 936.042969 431.539062 921.886719 417.378906 921.886719 399.972656 L 921.886719 384.191406 L 984.996094 384.191406 Z M 984.996094 352.628906 L 921.886719 352.628906 L 921.886719 257.9375 C 921.886719 250.695312 916.960938 244.382812 909.933594 242.625 L 858.777344 229.832031 L 858.777344 154.992188 L 959.777344 195.402344 C 975.097656 201.535156 984.996094 216.160156 984.996094 232.664062 Z M 984.996094 352.628906"/>
	</g>
	<path d="M 738.46875 145.640625 L 733.910156 145.640625 C 731.148438 128.792969 716.488281 115.898438 698.875 115.898438 L 547.164062 115.898438 C 527.589844 115.898438 511.664062 131.828125 511.664062 151.410156 L 511.664062 238.210938 C 511.664062 257.789062 527.589844 273.71875 547.164062 273.71875 L 698.875 273.71875 C 718.449219 273.71875 734.375 257.789062 734.375 238.210938 L 734.375 236.6875 L 738.46875 236.6875 C 752.605469 236.6875 764.109375 225.183594 764.109375 211.042969 L 764.109375 171.289062 C 764.109375 157.144531 752.605469 145.640625 738.46875 145.640625 Z M 574.777344 242.15625 L 547.164062 242.15625 C 544.988281 242.15625 543.21875 240.386719 543.21875 238.210938 L 543.21875 151.410156 C 543.21875 149.234375 544.988281 147.464844 547.164062 147.464844 L 574.777344 147.464844 Z M 637.886719 242.15625 L 606.332031 242.15625 L 606.332031 147.464844 L 637.886719 147.464844 Z M 732.554688 205.125 L 718.597656 205.125 C 709.882812 205.125 702.820312 212.191406 702.820312 220.90625 L 702.820312 238.210938 C 702.820312 240.386719 701.050781 242.15625 698.875 242.15625 L 669.441406 242.15625 L 669.441406 147.464844 L 698.875 147.464844 C 701.050781 147.464844 702.820312 149.234375 702.820312 151.410156 L 702.820312 161.421875 C 702.820312 170.136719 709.882812 177.203125 718.597656 177.203125 L 732.554688 177.203125 Z M 732.554688 205.125"/>
</svg>