<?xml version="1.0" encoding="UTF-8"?>
<svg version="1.1" xmlns="http://www.w3.org/2000/svg" width="50" height="50">
<path d="M0 0 C2.20300821 -0.00323221 4.40601623 -0.00659755 6.60902405 -0.01008606 C11.19988499 -0.01601804 15.7907273 -0.01793242 20.3815918 -0.01733398 C24.99523888 -0.01725322 29.60878561 -0.02412616 34.22241211 -0.0378418 C63.0165678 -0.12198324 91.67380909 0.27465342 120.41015625 2.16796875 C122.36585037 2.2947551 122.36585037 2.2947551 124.36105347 2.42410278 C132.55109344 2.96775078 140.73133737 3.60172668 148.91015625 4.29296875 C150.14599457 4.3964563 151.38183289 4.49994385 152.65512085 4.60656738 C251.25386976 12.96538577 348.58570851 31.44484991 500.41015625 73.16796875 C501.69608673 73.56308655 501.69608673 73.56308655 503.00799561 73.96618652 C586.35275134 99.62012524 667.53258267 130.97610144 746.41015625 168.16796875 C747.4197641 168.6436026 747.4197641 168.6436026 748.44976807 169.12884521 C760.43188853 174.77836128 772.36032813 180.52315957 784.09765625 186.66796875 C784.8340332 187.05339844 785.57041016 187.43882812 786.32910156 187.8359375 C787.69743839 188.56384417 789.05716136 189.30824268 790.40649414 190.07080078 C792.42400075 191.21273961 792.42400075 191.21273961 794.67749023 192.16748047 C796.9942664 193.30679464 798.63722511 194.28607709 800.41015625 196.16796875 C801.53598591 199.88739444 801.29653481 203.44080863 801.09765625 207.29296875 C801.06567139 208.46400146 801.03368652 209.63503418 801.00073242 210.84155273 C800.8615099 214.9550407 800.64403775 219.05906026 800.41015625 223.16796875 C800.32702277 224.72509095 800.24401849 226.28222006 800.16113281 227.83935547 C795.73032059 308.6452342 783.94454102 389.05887298 767.9786377 468.34259033 C767.41596764 471.13908587 766.85773129 473.93644148 766.29980469 476.73388672 C752.79928279 544.13417461 734.98424136 610.91448339 713.41015625 676.16796875 C713.09518188 677.12278137 712.78020752 678.07759399 712.45568848 679.06134033 C697.56430723 724.15877465 681.03183226 768.47767048 662.41015625 812.16796875 C662.10098267 812.89439575 661.79180908 813.62082275 661.4732666 814.3692627 C652.58751608 835.22746815 643.08887175 855.77564609 633.3293457 876.23779297 C632.4493455 878.08567652 631.57251047 879.93501627 630.69726562 881.78515625 C624.6958959 894.47003447 618.53486842 907.02787961 611.89453125 919.390625 C610.48577107 922.02648944 609.09002039 924.66894562 607.69836426 927.31387329 C599.49613637 942.90020994 591.00226134 958.24686317 582.02880859 973.40673828 C579.95614479 976.94245889 577.94288618 980.50991235 575.93164062 984.08081055 C568.81841132 996.69441344 561.16853887 1008.94339922 553.41015625 1021.16796875 C552.76530273 1022.18938965 552.12044922 1023.21081055 551.45605469 1024.26318359 C537.09366278 1047.00900456 521.97056228 1069.22641105 506.41015625 1091.16796875 C505.8800293 1091.915625 505.34990234 1092.66328125 504.80371094 1093.43359375 C496.49591411 1105.1165926 487.85474872 1116.52961059 479.13574219 1127.90771484 C476.99764996 1130.70828896 474.88856828 1133.52876448 472.78515625 1136.35546875 C463.94195722 1148.18028278 454.82582859 1159.79440613 445.41015625 1171.16796875 C443.95130635 1172.95921483 442.49298601 1174.75089231 441.03515625 1176.54296875 C437.24208625 1181.18188014 433.38283218 1185.76047541 429.50097656 1190.32495117 C426.55081532 1193.8000099 423.6536571 1197.31232049 420.78515625 1200.85546875 C417.2049859 1205.25742198 413.45989464 1209.46911464 409.63671875 1213.66015625 C407.43154868 1216.14387411 405.35504621 1218.6959158 403.28515625 1221.29296875 C398.75770502 1226.89648674 393.86665532 1232.11737808 388.90185547 1237.33447266 C385.20881307 1241.21925978 381.6293826 1245.17536861 378.11621094 1249.22338867 C375.42691489 1252.28867817 372.64042396 1255.25964973 369.84765625 1258.23046875 C368.76294174 1259.38794672 367.67831147 1260.54550364 366.59375 1261.703125 C365.99994034 1262.33517349 365.40613068 1262.96722198 364.79432678 1263.61842346 C363.00551915 1265.5313093 361.22366592 1267.44972724 359.44639587 1269.37327576 C351.13915888 1278.34696444 342.63470188 1287.09212415 333.98046875 1295.73046875 C332.6518631 1297.05975096 331.32340565 1298.38918133 329.99508667 1299.71875 C327.24215501 1302.47313852 324.48746765 1305.22575488 321.73144531 1307.97705078 C318.21818505 1311.48457527 314.70948887 1314.99662591 311.20207405 1318.50999451 C308.47226176 1321.24343366 305.74005603 1323.97447048 303.0071373 1326.70480347 C301.71235902 1327.9989204 300.41830721 1329.29376463 299.12503433 1330.58938599 C286.95900155 1342.77269325 286.95900155 1342.77269325 281.02267456 1347.76953125 C279.23017248 1349.32405755 277.5711128 1350.97433594 275.91015625 1352.66796875 C273.65217682 1354.96122911 271.35019121 1357.13224903 268.91015625 1359.23046875 C264.80503845 1362.76632216 260.86039297 1366.46150812 256.91015625 1370.16796875 C251.82317186 1374.93326618 246.71553356 1379.64535202 241.41015625 1384.16796875 C239.11759956 1386.12526195 236.82617311 1388.08387349 234.53515625 1390.04296875 C233.92623535 1390.5630249 233.31731445 1391.08308105 232.68994141 1391.61889648 C229.15296261 1394.64754709 225.66580662 1397.71984058 222.22265625 1400.85546875 C218.05943199 1404.6328332 213.75307734 1408.19224143 209.3828125 1411.7265625 C206.07264211 1414.44516499 202.83520995 1417.23882011 199.59765625 1420.04296875 C194.46717461 1424.47399823 189.22973879 1428.72527526 183.87402344 1432.88012695 C179.12404509 1436.57565226 174.4793124 1440.38807038 169.84765625 1444.23046875 C162.82304002 1450.04855192 155.67575014 1455.65423125 148.41015625 1461.16796875 C146.4091968 1462.70838992 144.40922646 1464.25009662 142.41015625 1465.79296875 C140.73958583 1467.07702521 139.06814042 1468.35993534 137.39648438 1469.64257812 C135.95162499 1470.75215057 134.50774476 1471.86299842 133.06445312 1472.97460938 C122.02921553 1481.46911691 110.91136154 1489.78125518 99.47509766 1497.72802734 C96.63780783 1499.70654891 93.81694408 1501.7079115 90.99536133 1503.70874023 C87.47333355 1506.20422723 83.94310038 1508.68796724 80.41015625 1511.16796875 C79.78915039 1511.60399414 79.16814453 1512.04001953 78.52832031 1512.48925781 C69.43911459 1518.85121654 60.19518297 1524.971946 50.91015625 1531.04296875 C50.349263 1531.40981781 49.78836975 1531.77666687 49.21047974 1532.15463257 C46.55469484 1533.89019571 43.89490941 1535.61875172 41.2265625 1537.33496094 C39.48585213 1538.46787126 37.76057991 1539.62542829 36.0625 1540.82128906 C35.38316406 1541.28889648 34.70382812 1541.75650391 34.00390625 1542.23828125 C33.44380859 1542.64062988 32.88371094 1543.04297852 32.30664062 1543.45751953 C29.38558937 1544.55178564 27.39065665 1543.95741876 24.41015625 1543.16796875 C21.69140625 1541.73193359 21.69140625 1541.73193359 18.91015625 1539.87890625 C17.86915771 1539.19207764 16.82815918 1538.50524902 15.75561523 1537.79760742 C14.64023227 1537.04640255 13.52508486 1536.29484781 12.41015625 1535.54296875 C11.24927161 1534.77049986 10.08788767 1533.99878085 8.92602539 1533.2277832 C5.41061998 1530.88942996 1.90957266 1528.53015417 -1.58984375 1526.16796875 C-2.60965332 1525.4817041 -3.62946289 1524.79543945 -4.68017578 1524.08837891 C-16.76499889 1515.94474329 -28.73140274 1507.63748618 -40.58984375 1499.16796875 C-41.64751953 1498.41531738 -41.64751953 1498.41531738 -42.7265625 1497.64746094 C-54.35838265 1489.36213842 -65.75165971 1480.7869554 -77.07958984 1472.09179688 C-79.43936225 1470.28329594 -81.80429714 1468.48185868 -84.171875 1466.68359375 C-92.19460466 1460.58502203 -100.12468218 1454.38818252 -107.97265625 1448.06640625 C-110.92700172 1445.68991234 -113.9102323 1443.35347605 -116.90429688 1441.02734375 C-122.92820191 1436.34283213 -128.78116438 1431.50174038 -134.55102539 1426.5078125 C-138.02104388 1423.50523997 -141.52555545 1420.55906058 -145.08984375 1417.66796875 C-151.08438717 1412.79685367 -156.93231054 1407.76290073 -162.78271484 1402.72070312 C-164.57408519 1401.18150893 -166.37180262 1399.65009756 -168.171875 1398.12109375 C-174.88186481 1392.41469945 -181.4592701 1386.59789521 -187.92578125 1380.6171875 C-190.12075152 1378.59923096 -192.33650585 1376.6199343 -194.58984375 1374.66796875 C-199.49993933 1370.407142 -204.26548359 1365.98868332 -209.04736328 1361.58544922 C-210.50484358 1360.24608065 -211.96712085 1358.9119375 -213.4296875 1357.578125 C-226.41230355 1345.73527222 -239.19947813 1333.72356322 -251.52587891 1321.19506836 C-254.49128543 1318.19410946 -257.40210492 1315.32144346 -260.671875 1312.6484375 C-263.02245997 1310.65028294 -264.84211496 1308.79668245 -266.82104492 1306.46801758 C-270.31979834 1302.427662 -274.0054039 1298.63900501 -277.80859375 1294.88671875 C-278.47016479 1294.22893433 -279.13173584 1293.5711499 -279.81335449 1292.89343262 C-281.9030711 1290.81579601 -283.9960169 1288.74146248 -286.08984375 1286.66796875 C-288.85326075 1283.93138725 -291.61318097 1281.19134612 -294.37109375 1278.44921875 C-294.99109253 1277.83751831 -295.61109131 1277.22581787 -296.24987793 1276.59558105 C-300.03814648 1272.82825486 -303.61649139 1268.9339437 -307.09875488 1264.88171387 C-308.84094592 1262.87937085 -310.68081167 1261.01117214 -312.58984375 1259.16796875 C-315.73562711 1256.06420921 -318.66278391 1252.84920577 -321.54296875 1249.5 C-324.17151757 1246.50526022 -326.879314 1243.58841046 -329.58984375 1240.66796875 C-336.50523999 1233.20272449 -343.14880587 1225.5268947 -349.76342773 1217.79541016 C-353.54098091 1213.38233166 -357.34232786 1208.99052793 -361.15234375 1204.60546875 C-369.04457958 1195.51124435 -376.89264644 1186.38922601 -384.37109375 1176.94921875 C-386.65031505 1174.0921667 -388.95834854 1171.26036318 -391.27075195 1168.43017578 C-397.51866924 1160.77852553 -403.60350105 1153.02504354 -409.58984375 1145.16796875 C-411.15190108 1143.14679322 -412.71441256 1141.12596861 -414.27734375 1139.10546875 C-435.13875152 1112.01490315 -455.01542317 1084.22817401 -473.94970703 1055.75854492 C-475.7182276 1053.10038268 -477.49169333 1050.44556895 -479.265625 1047.79101562 C-489.80562054 1031.98803368 -499.9832831 1015.96855201 -509.83984375 999.73046875 C-510.19091187 999.1521228 -510.54197998 998.57377686 -510.90368652 997.97790527 C-527.20549122 971.08437858 -542.28824261 943.51759952 -556.76171875 915.6015625 C-558.52275915 912.2075682 -560.30030856 908.823854 -562.10546875 905.453125 C-574.48555845 882.31542168 -585.27040004 858.46356931 -595.82000732 834.45230103 C-597.66411239 830.25752936 -599.52777894 826.07272164 -601.41796875 821.8984375 C-615.96268655 789.64423009 -628.63755196 756.46162275 -640.58984375 723.16796875 C-641.03913239 721.92031738 -641.03913239 721.92031738 -641.49749756 720.64746094 C-674.28950238 629.52289079 -699.05796594 535.35906324 -741.41271973 256.42614746 C-741.58411041 254.24106383 -741.76134214 252.05653512 -741.94042969 249.87207031 C-743.40015014 231.9410937 -743.86240754 214.15298564 -743.58984375 196.16796875 C-724.16906082 184.72417985 -704.00497386 174.69943155 -683.58984375 165.16796875 C-682.25402197 164.54176701 -680.91824968 163.91545967 -679.58251953 163.2890625 C-656.16175303 152.31955015 -632.51851031 141.97900268 -608.58984375 132.16796875 C-607.85354736 131.86588501 -607.11725098 131.56380127 -606.35864258 131.25256348 C-519.88478342 95.82009912 -430.85424258 66.72549068 -148.58984375 10.16796875 C-147.22104065 10.00038055 -147.22104065 10.00038055 -145.82458496 9.82940674 C-121.64641358 6.88284231 -97.44773449 4.64871462 -73.15234375 2.91796875 C-71.98859222 2.83488464 -70.8248407 2.75180054 -69.62582397 2.66619873 C-66.24046223 2.42730124 -62.85474905 2.19451965 -59.46875 1.96484375 C-58.0285701 1.86518814 -58.0285701 1.86518814 -56.55929565 1.76351929 C-37.71002018 0.52181002 -18.88696618 0.0067077 0 0 Z M28.41015625 23.16796875 C26.25597833 25.32214667 26.86067422 30.08410207 26.6484375 33.078125 C26.50165104 35.01233972 26.35415612 36.94650076 26.20605469 38.88061523 C26.12802612 39.91290253 26.04999756 40.94518982 25.96960449 42.00875854 C18.02618591 145.63935132 -3.30297633 248.34190891 -35.52734375 347.10546875 C-35.8264566 348.02235474 -36.12556946 348.93924072 -36.43374634 349.88391113 C-40.10462424 361.0859382 -43.99094224 372.19465489 -48.10472107 383.24217224 C-48.59151085 384.55811119 -48.59151085 384.55811119 -49.08813477 385.90063477 C-49.52344261 387.06635765 -49.52344261 387.06635765 -49.96754456 388.25563049 C-50.69299076 390.1497678 -50.69299076 390.1497678 -50.58984375 392.16796875 C-51.1578067 392.01091965 -51.72576965 391.85387054 -52.3109436 391.69206238 C-54.59128138 391.16763813 -56.71908849 390.93626552 -59.05224609 390.7824707 C-59.9409288 390.72156754 -60.82961151 390.66066437 -61.745224 390.59791565 C-62.71230789 390.53466599 -63.67939178 390.47141632 -64.67578125 390.40625 C-66.79684269 390.25949651 -68.91785282 390.11200022 -71.03881836 389.96386719 C-72.16464325 389.88583862 -73.29046814 389.80781006 -74.45040894 389.72741699 C-183.30589046 382.07848587 -290.83747175 362.20956547 -473.58984375 310.16796875 C-474.54425354 309.8624408 -475.49866333 309.55691284 -476.48199463 309.24212646 C-556.14834105 283.70707894 -635.61607237 252.92822232 -710.00537109 214.39892578 C-711.08898926 213.83931152 -712.17260742 213.27969727 -713.2890625 212.703125 C-714.26061279 212.19273682 -715.23216309 211.68234863 -716.2331543 211.15649414 C-717.01086182 210.83028076 -717.78856934 210.50406738 -718.58984375 210.16796875 C-719.24984375 210.49796875 -719.90984375 210.82796875 -720.58984375 211.16796875 C-719.77386719 211.70421875 -718.95789063 212.24046875 -718.1171875 212.79296875 C-699.9549485 224.78660325 -682.15836076 237.32275275 -664.58984375 250.16796875 C-663.81688965 250.73225586 -663.04393555 251.29654297 -662.24755859 251.87792969 C-650.91364565 260.16067104 -639.6998748 268.58754404 -628.58984375 277.16796875 C-627.85378906 277.73515625 -627.11773438 278.30234375 -626.359375 278.88671875 C-617.5977981 285.64263347 -608.91154447 292.47686385 -600.34960938 299.484375 C-596.12156446 302.94100195 -591.84276137 306.32140529 -587.52734375 309.66796875 C-580.59483113 315.06320778 -573.99808538 320.81606878 -567.390625 326.60107422 C-564.62675863 329.00596771 -561.8291391 331.36998183 -559.02734375 333.73046875 C-548.95197335 342.23581211 -538.93522752 350.76462595 -529.25390625 359.71875 C-527.05893598 361.73670654 -524.84318165 363.7160032 -522.58984375 365.66796875 C-518.70621551 369.03592851 -514.92303531 372.51019908 -511.14135742 375.99145508 C-508.08351759 378.80478234 -505.00482203 381.59125046 -501.90234375 384.35546875 C-491.11297508 394.05377766 -480.55021114 404.01366631 -470.40722656 414.38745117 C-467.66843932 417.17092031 -464.87674105 419.81501481 -461.91015625 422.35546875 C-456.89033939 426.69597507 -452.22380937 431.38394113 -447.54418945 436.08325195 C-446.02991795 437.60288543 -444.51036945 439.11709392 -442.99023438 440.63085938 C-438.22785248 445.39032403 -433.59586672 450.20687791 -429.21508789 455.32446289 C-426.33157768 458.59521332 -423.2017707 461.61662235 -420.08984375 464.66796875 C-415.5703719 469.13889159 -411.16403747 473.62096394 -407.05859375 478.48046875 C-405.47721406 480.29737308 -403.80787179 481.98008155 -402.08984375 483.66796875 C-399.12268574 486.58927663 -396.38925404 489.64788548 -393.671875 492.80078125 C-391.02937975 495.80519424 -388.31144202 498.73530947 -385.58984375 501.66796875 C-378.67593032 509.13169637 -372.03235233 516.80488876 -365.4206543 524.53613281 C-362.15435442 528.35313723 -358.86842245 532.15219682 -355.5690918 535.94067383 C-350.63033772 541.61441752 -345.7579666 547.3253831 -341.0234375 553.171875 C-339.13079691 555.50197987 -337.22695611 557.82071757 -335.3125 560.1328125 C-328.4376861 568.43684662 -321.65185112 576.79528646 -315.03662109 585.30761719 C-313.48093621 587.30800848 -311.9203612 589.30452448 -310.359375 591.30078125 C-298.10637729 606.98756156 -285.88055108 622.68373853 -274.5 639.01953125 C-272.02939097 642.56137765 -269.49482042 646.05215033 -266.94384766 649.53637695 C-259.13358203 660.21991685 -251.8101229 671.20782995 -244.51904297 682.25 C-241.55605232 686.73160772 -238.57279914 691.19963625 -235.58984375 695.66796875 C-234.6105701 697.13664742 -233.6313914 698.60538941 -232.65234375 700.07421875 C-231.97171875 701.09515625 -231.29109375 702.11609375 -230.58984375 703.16796875 C-232.99069961 707.52870694 -235.94939976 711.07621576 -239.21484375 714.79296875 C-242.91550602 719.04973235 -246.56082186 723.32888651 -250.08984375 727.73046875 C-254.44237226 733.09594935 -259.10519941 738.1318583 -263.81640625 743.1796875 C-265.95338689 745.47155285 -268.04207723 747.79555632 -270.08984375 750.16796875 C-274.55099465 755.31545056 -279.20002471 760.28969444 -283.83615112 765.27883911 C-284.95862495 766.48800116 -286.07993272 767.69824737 -287.19973755 768.90988159 C-297.20691106 779.73476707 -307.50813019 790.24246646 -317.94458008 800.65307617 C-320.5521235 803.25519696 -323.15419439 805.86270628 -325.75585938 808.47070312 C-327.4384811 810.15266492 -329.12141253 811.83431696 -330.8046875 813.515625 C-331.56941879 814.28238052 -332.33415009 815.04913605 -333.12205505 815.83912659 C-337.22297094 819.92237791 -341.4031366 823.84332235 -345.80690002 827.59910583 C-347.64824102 829.21935417 -349.37304776 830.91699022 -351.08984375 832.66796875 C-354.0358459 835.6603125 -357.11967382 838.42121047 -360.30078125 841.16015625 C-362.52548847 843.1115206 -364.7013764 845.10965331 -366.87060547 847.12231445 C-372.05458456 851.93034352 -377.364345 856.48646976 -382.875 860.921875 C-385.6965787 863.25627465 -388.39575087 865.68787473 -391.08984375 868.16796875 C-395.90174808 872.58678794 -400.87254008 876.74030637 -405.95703125 880.83984375 C-407.80415159 882.34228613 -409.6351222 883.86313738 -411.46484375 885.38671875 C-419.92391639 892.42261291 -428.50553526 899.24533575 -437.27734375 905.88671875 C-440.97230599 908.68654441 -444.62560065 911.53624216 -448.27197266 914.39892578 C-457.86073436 921.92005236 -467.65192077 929.11622851 -477.58984375 936.16796875 C-478.34249512 936.70228516 -479.09514648 937.23660156 -479.87060547 937.78710938 C-488.08719015 943.613575 -496.3293688 949.40390269 -504.58984375 955.16796875 C-503.92984375 955.49796875 -503.26984375 955.82796875 -502.58984375 956.16796875 C-499.95143977 955.13590181 -499.95143977 955.13590181 -496.9140625 953.546875 C-495.70097278 952.94302394 -494.48774979 952.33944057 -493.27441406 951.73608398 C-492.62589478 951.4101828 -491.97737549 951.08428162 -491.3092041 950.74850464 C-412.11271671 911.06818588 -326.19496068 882.31163118 -149.58984375 842.16796875 C-149.17822998 843.47773682 -149.17822998 843.47773682 -148.75830078 844.81396484 C-147.65900779 847.96943646 -146.38001601 850.84238591 -144.89453125 853.83203125 C-144.35159424 854.93579102 -143.80865723 856.03955078 -143.24926758 857.17675781 C-142.95935944 857.7636438 -142.66945129 858.35052979 -142.37075806 858.9552002 C-134.58289209 874.75392982 -127.41133863 890.80842904 -120.33389282 906.93516541 C-118.50057409 911.11057759 -116.64677011 915.27552064 -114.765625 919.4296875 C-76.64579077 1003.94717683 -48.09821205 1093.55355882 -6.12121582 1267.52685547 C-5.59548078 1270.13995065 -5.06379686 1272.75176609 -4.53027344 1275.36328125 C11.77566141 1355.31128124 23.04299037 1436.66336206 27.41015625 1518.16796875 C28.07015625 1517.83796875 28.73015625 1517.50796875 29.41015625 1517.16796875 C29.82027495 1515.27283417 29.82027495 1515.27283417 29.90917969 1512.9543457 C29.97000732 1512.04540558 30.03083496 1511.13646545 30.09350586 1510.19998169 C30.15159424 1509.19555023 30.20968262 1508.19111877 30.26953125 1507.15625 C30.41338538 1504.98003858 30.55760883 1502.80385155 30.70214844 1500.62768555 C30.77606812 1499.46586761 30.84998779 1498.30404968 30.92614746 1497.10702515 C38.06985269 1386.39729505 57.95428634 1276.40962606 137.41015625 1004.16796875 C137.67169495 1003.46736328 137.93323364 1002.76675781 138.20269775 1002.04492188 C155.9908435 954.45454547 175.7994115 907.67211563 197.8984375 861.91796875 C198.45660156 860.76184082 199.01476562 859.60571289 199.58984375 858.41455078 C200.65729407 856.21038079 201.72874486 854.00814251 202.8046875 851.80810547 C203.51625 850.34268311 203.51625 850.34268311 204.2421875 848.84765625 C204.66218018 847.98897949 205.08217285 847.13030273 205.51489258 846.24560547 C206.54206589 844.23889888 206.54206589 844.23889888 206.41015625 842.16796875 C299.84533199 859.98946806 390.95335108 884.17801684 531.53515625 942.79296875 C532.25723267 943.12303925 532.97930908 943.45310974 533.7232666 943.79318237 C541.6355015 947.41911118 549.45509497 951.13632801 557.14794922 955.21240234 C558.2677417 955.68540771 558.2677417 955.68540771 559.41015625 956.16796875 C560.07015625 955.83796875 560.73015625 955.50796875 561.41015625 955.16796875 C560.64276123 954.63393433 560.64276123 954.63393433 559.85986328 954.08911133 C536.62805106 937.90861213 513.81908544 921.27233802 491.52490234 903.82128906 C489.55886921 902.28423337 487.58877381 900.75257803 485.6171875 899.22265625 C478.76835625 893.89474692 472.0820647 888.41284945 465.484375 882.77734375 C462.70282537 880.4052784 459.87666964 878.09304163 457.03515625 875.79296875 C446.73474705 867.39671088 436.79273174 858.59609703 427.03515625 849.578125 C424.87401196 847.59386008 422.69175917 845.64906815 420.47265625 843.73046875 C415.92232674 839.77935959 411.50643374 835.68411003 407.09204102 831.58276367 C404.7973629 829.45199114 402.49690348 827.32788707 400.18969727 825.21069336 C389.91547709 815.74513099 380.01163799 805.92290118 370.14599609 796.03417969 C367.3901427 793.27291591 364.62891597 790.51710515 361.8671875 787.76171875 C360.08952266 785.98339383 358.31216766 784.20475912 356.53515625 782.42578125 C355.72151611 781.61416534 354.90787598 780.80254944 354.06958008 779.96633911 C349.87008235 775.7496923 345.8220668 771.46525423 341.96240234 766.93429565 C340.34847965 765.09778591 338.65554674 763.37931861 336.91015625 761.66796875 C333.89602043 758.70061552 331.11098292 755.59451583 328.3515625 752.390625 C326.12211564 749.83819992 323.83014243 747.34909361 321.53515625 744.85546875 C317.41231583 740.34027343 313.53277012 735.679781 309.6953125 730.921875 C307.326496 728.06714742 304.86089208 725.33357665 302.34765625 722.60546875 C297.79968624 717.65307707 293.36817584 712.61024569 289.41015625 707.16796875 C288.91644531 706.56597656 288.42273437 705.96398437 287.9140625 705.34375 C287.41015625 703.16796875 287.41015625 703.16796875 289.09375 699.83203125 C289.99500382 698.47443126 290.9145866 697.12890183 291.84765625 695.79296875 C292.34338135 695.05691406 292.83910645 694.32085938 293.34985352 693.5625 C294.43951472 691.94982147 295.53683113 690.34229638 296.640625 688.73925781 C298.46519227 686.08799643 300.26757217 683.42268387 302.06640625 680.75390625 C309.70120283 669.45508234 317.48476428 658.26456239 325.41015625 647.16796875 C326.16280762 646.11029297 326.16280762 646.11029297 326.93066406 645.03125 C334.6004532 634.26358132 342.51678513 623.70315871 350.55859375 613.2109375 C353.44981776 609.43608583 356.30542619 605.63726387 359.1394043 601.81933594 C365.198541 593.65933332 371.53799591 585.75890267 377.98828125 577.90576172 C379.89847147 575.57115766 381.78124738 573.21528882 383.66015625 570.85546875 C390.95320097 561.7201309 398.42502223 552.74491759 405.99414062 543.83837891 C407.41334228 542.16421034 408.82666396 540.485254 410.23828125 538.8046875 C415.1323766 532.98422198 420.10177427 527.26445074 425.22265625 521.640625 C427.57540626 518.98117722 429.80793682 516.24568206 432.03515625 513.48046875 C435.0967335 509.69601909 438.25579126 506.20308861 441.75 502.8203125 C443.45399851 501.12433281 445.02729708 499.36307179 446.59765625 497.54296875 C451.71920304 491.61514741 457.07610332 485.90370512 462.41015625 480.16796875 C463.00425293 479.52730469 463.59834961 478.88664062 464.21044922 478.2265625 C471.31483678 470.56963227 478.45834095 462.97591914 485.93530273 455.6796875 C488.5777473 453.08317187 491.07168377 450.42816291 493.4765625 447.609375 C498.25101542 442.09272479 503.44160529 436.98719774 508.60717773 431.84057617 C510.34409225 430.10902175 512.07559514 428.37218516 513.80664062 426.63476562 C518.94225679 421.49638763 524.08863184 416.45739475 529.61938477 411.74047852 C532.87679364 408.88008716 535.87660202 405.76175029 538.91015625 402.66796875 C543.38107909 398.1484969 547.86315144 393.74216247 552.72265625 389.63671875 C554.53956058 388.05533906 556.22226905 386.38599679 557.91015625 384.66796875 C560.86000443 381.67171846 563.94883743 378.90802566 567.1328125 376.1640625 C569.81108672 373.81655284 572.42197512 371.39968619 575.03515625 368.98046875 C580.00671951 364.38943902 585.1043744 359.96669248 590.26147461 355.5859375 C593.94034515 352.45281949 597.54119669 349.25322214 601.09765625 345.98046875 C605.40759615 342.02812211 609.85548378 338.31101539 614.40625 334.640625 C617.9068159 331.75914488 621.31303649 328.78085632 624.72265625 325.79296875 C630.11522727 321.07840304 635.62252785 316.57013052 641.28710938 312.1875 C645.1919893 309.15671581 648.97707177 306.01781714 652.72265625 302.79296875 C658.31039309 297.99697124 664.10515724 293.51496716 669.97631836 289.07250977 C674.6451585 285.53525659 679.23579919 281.91968421 683.78515625 278.23046875 C691.65609139 271.87382167 699.80246602 265.9107962 707.97509766 259.95019531 C710.3710085 258.1966211 712.75738448 256.43090247 715.140625 254.66015625 C735.47010424 239.56494828 756.31701694 225.17418576 777.41015625 211.16796875 C776.75015625 210.83796875 776.09015625 210.50796875 775.41015625 210.16796875 C773.07070587 211.18335118 770.85911608 212.26175685 768.60546875 213.4453125 C767.15824094 214.18626801 765.710888 214.92697916 764.26342773 215.66748047 C763.49425018 216.06449158 762.72507263 216.46150269 761.93258667 216.87054443 C744.74653774 225.72313492 727.28118658 233.76392696 709.55978394 241.47608948 C705.32349979 243.32156676 701.10702416 245.20346906 696.90625 247.12890625 C616.57886196 283.85274322 531.52166267 311.88971858 446.41015625 335.16796875 C445.51598999 335.41266907 444.62182373 335.65736938 443.70056152 335.90948486 C341.83359956 363.72528735 237.02355694 382.59421126 113.79296875 390.95019531 C111.56116063 391.15416794 109.57163768 391.60001684 107.41015625 392.16796875 C107.23524155 391.56759293 107.06032684 390.9672171 106.88011169 390.34864807 C105.02631634 384.06779382 102.97814166 377.87745702 100.8203125 371.6953125 C100.11666724 369.66234565 99.41373468 367.62913202 98.71142578 365.59570312 C98.34615784 364.53826904 97.98088989 363.48083496 97.60455322 362.39135742 C89.49084702 338.83732738 82.02565141 315.18467202 75.41015625 291.16796875 C75.18023987 290.33620117 74.95032349 289.50443359 74.71343994 288.64746094 C50.74988783 201.80389948 35.72318665 113.01269037 29.41015625 23.16796875 C29.08015625 23.16796875 28.75015625 23.16796875 28.41015625 23.16796875 Z " fill="#0087C0" transform="translate(743.58984375,-0.16796875)"/>
</svg>
