<?xml version="1.0" encoding="UTF-8" standalone="no"?>
<svg
   version="1.1"
   width="1545"
   height="1545"
   id="svg1"
   viewBox="0 0 1545 1545"
   xmlns="http://www.w3.org/2000/svg"
   xmlns:svg="http://www.w3.org/2000/svg">
  <path
     d="m 741.14061,19.193847 c 2.15082,-0.0036 4.30163,-0.0061 6.45242,-0.0098 4.48208,-0.0061 8.96415,-0.0073 13.44623,-0.0073 4.50433,8.5e-5 9.00857,-0.0061 13.51286,-0.02008 28.11186,-0.08216 56.09007,0.305092 84.14549,2.153545 1.90933,0.123783 1.90933,0.123783 3.85723,0.250064 7.99599,0.530764 15.98243,1.149714 23.96752,1.824588 1.20648,0.101018 2.41309,0.202064 3.65618,0.306157 96.26238,8.160754 191.28796,26.202341 339.51486,66.93682 1.2554,0.385761 1.2554,0.385761 2.5363,0.779303 81.3699,25.046066 160.6261,55.659046 237.6346,91.969646 0.9858,0.46437 0.9858,0.46437 1.9913,0.93812 11.6982,5.51564 23.344,11.12432 34.8032,17.12351 0.719,0.3763 1.4379,0.75259 2.1786,1.1403 1.3359,0.71066 2.6635,1.43741 3.9807,2.1819 1.9698,1.11489 1.9698,1.11489 4.1698,2.047 2.262,1.11232 3.8661,2.06841 5.5969,3.9057 1.0992,3.63129 0.8654,7.10051 0.6712,10.86139 -0.032,1.14329 -0.062,2.28656 -0.094,3.4645 -0.136,4.01602 -0.3484,8.02279 -0.5766,12.03434 -0.081,1.52022 -0.1623,3.04045 -0.2432,4.56069 -4.3258,78.89116 -15.8323,157.39937 -31.42,234.80444 -0.5493,2.73023 -1.0943,5.46131 -1.639,8.19246 -13.1804,65.80321 -30.5734,131.00114 -51.6363,194.70843 -0.3074,0.93218 -0.615,1.86437 -0.9317,2.82482 -14.5387,44.02884 -30.6794,87.29758 -48.8598,129.95263 -0.3018,0.70922 -0.6037,1.41841 -0.9147,2.14912 -8.6752,20.36397 -17.9488,40.42525 -27.4771,60.4026 -0.8591,1.80403 -1.7151,3.60965 -2.5697,5.41589 -5.859,12.38428 -11.8742,24.64464 -18.3572,36.71436 -1.3753,2.57349 -2.7381,5.15324 -4.0968,7.73555 -8.0078,15.21699 -16.3003,30.2 -25.0612,45.00068 -2.0236,3.45193 -3.989,6.93484 -5.9527,10.42119 -6.9447,12.31461 -14.4133,24.27339 -21.9878,36.20829 -0.6296,0.9972 -1.2592,1.9944 -1.9078,3.0219 -14.0221,22.2068 -28.7869,43.8978 -43.9786,65.3195 -0.5174,0.7297 -1.035,1.4597 -1.5683,2.2119 -8.111,11.4061 -16.5474,22.5487 -25.0598,33.6572 -2.0875,2.7343 -4.1465,5.4879 -6.2002,8.2476 -8.6335,11.5447 -17.5337,22.8835 -26.7262,33.9876 -1.4243,1.7487 -2.848,3.4981 -4.2714,5.2476 -3.7032,4.529 -7.471,8.999 -11.2608,13.4555 -2.8802,3.3926 -5.7088,6.8217 -8.5094,10.281 -3.4951,4.2975 -7.1516,8.4094 -10.8842,12.5012 -2.153,2.4249 -4.1802,4.9164 -6.2011,7.452 -4.4201,5.4707 -9.1953,10.5679 -14.0425,15.6614 -3.6055,3.7927 -7.1001,7.6551 -10.5301,11.6071 -2.6254,2.9928 -5.3459,5.8932 -8.0727,8.7938 -1.0589,1.1299 -2.1178,2.2601 -3.1767,3.3902 -0.5797,0.6172 -1.1595,1.2341 -1.7568,1.87 -1.7464,1.8676 -3.4861,3.7404 -5.2212,5.6186 -8.1105,8.7609 -16.4133,17.2988 -24.8625,25.7325 -1.2972,1.2979 -2.5941,2.5957 -3.8909,3.8939 -2.6877,2.689 -5.3772,5.3764 -8.0678,8.0626 -3.43,3.4245 -6.8555,6.8532 -10.2799,10.2833 -2.6652,2.6686 -5.3326,5.335 -8.0008,8.0006 -1.2641,1.2635 -2.5274,2.5277 -3.7901,3.7925 -11.8777,11.8947 -11.8777,11.8947 -17.6734,16.7731 -1.7501,1.5177 -3.3698,3.1288 -4.9914,4.7825 -2.2044,2.2389 -4.4518,4.3584 -6.8342,6.4069 -4.00772,3.452 -7.85884,7.0596 -11.71559,10.6784 -4.96637,4.6523 -9.95308,9.2528 -15.13263,13.6682 -2.23836,1.911 -4.47548,3.8232 -6.71213,5.7358 -0.59448,0.5076 -1.18897,1.0155 -1.80158,1.5386 -3.45316,2.9568 -6.85757,5.9563 -10.21915,9.0176 -4.06467,3.688 -8.26892,7.1629 -12.53562,10.6136 -3.23178,2.6542 -6.39254,5.3816 -9.5533,8.1193 -5.00898,4.3261 -10.12229,8.4766 -15.35108,12.5329 -4.63748,3.6081 -9.1721,7.3302 -13.69399,11.0815 -6.85819,5.6802 -13.83615,11.153 -20.92958,16.5362 -1.95354,1.5038 -3.90609,3.009 -5.85779,4.5155 -1.63101,1.2534 -3.26288,2.506 -4.89487,3.7582 -1.41061,1.0834 -2.82035,2.1678 -4.22936,3.2532 -10.77384,8.2931 -21.6282,16.4083 -32.79348,24.1667 -2.77006,1.9317 -5.52409,3.8857 -8.2788,5.839 -3.43858,2.4365 -6.88515,4.8613 -10.33439,7.2826 -0.6063,0.4257 -1.21258,0.8514 -1.83725,1.29 -8.87382,6.2112 -17.89873,12.1868 -26.96373,18.114 -0.54761,0.3581 -1.09521,0.7163 -1.65941,1.0853 -2.59285,1.6945 -5.18962,3.3821 -7.79474,5.0576 -1.69946,1.1062 -3.38385,2.2363 -5.0417,3.4037 -0.66324,0.4566 -1.32648,0.9131 -2.00981,1.3835 -0.54683,0.3929 -1.09366,0.7857 -1.65705,1.1903 -2.85184,1.0684 -4.7995,0.4881 -7.70936,-0.2826 -2.65434,-1.4021 -2.65434,-1.4021 -5.36969,-3.2112 -1.01633,-0.6705 -2.03266,-1.3412 -3.07979,-2.0321 -1.08895,-0.7333 -2.17768,-1.4671 -3.26618,-2.201 -1.13338,-0.7543 -2.26725,-1.5076 -3.40158,-2.2605 -3.4321,-2.2828 -6.8502,-4.5863 -10.26669,-6.8925 -0.99564,-0.6699 -1.9913,-1.3401 -3.01712,-2.0303 -11.79845,-7.9506 -23.48131,-16.0609 -35.05876,-24.3299 -1.03262,-0.7349 -1.03262,-0.7349 -2.08609,-1.4844 -11.35621,-8.089 -22.47953,-16.461 -33.53903,-24.9502 -2.30385,-1.7656 -4.61276,-3.5243 -6.92422,-5.28 -7.83264,-5.9541 -15.57481,-12.004 -23.23684,-18.176 -2.88432,-2.3204 -5.79687,-4.6013 -8.72,-6.8724 -5.88115,-4.5735 -11.59542,-9.2999 -17.22857,-14.1754 -3.38779,-2.9316 -6.80928,-5.8078 -10.28909,-8.6304 -5.85251,-4.7556 -11.56187,-9.6704 -17.27364,-14.5931 -1.74893,-1.5027 -3.50404,-2.9978 -5.26146,-4.4906 -6.551,-5.5712 -12.97256,-11.2502 -19.28584,-17.0891 -2.14294,-1.9702 -4.3062,-3.9026 -6.50614,-5.8083 -4.79376,-4.1599 -9.44638,-8.4736 -14.11494,-12.7726 -1.42295,-1.3076 -2.85059,-2.6102 -4.27851,-3.9123 -12.67497,-11.5622 -25.15916,-23.2893 -37.19349,-35.5209 -2.89513,-2.9299 -5.73697,-5.7346 -8.92926,-8.3442 -2.2949,-1.9507 -4.07143,-3.7604 -6.00347,-6.034 -3.41585,-3.9446 -7.01413,-7.6435 -10.72719,-11.3069 -0.64589,-0.6422 -1.29179,-1.2843 -1.95727,-1.946 -2.04019,-2.0283 -4.08355,-4.0536 -6.12775,-6.0779 -2.69794,-2.6718 -5.39248,-5.3469 -8.08502,-8.024 -0.60532,-0.5973 -1.21063,-1.1945 -1.83428,-1.8098 -3.69851,-3.678 -7.19205,-7.4801 -10.59181,-11.4363 -1.70091,-1.9548 -3.49718,-3.7787 -5.36097,-5.5782 -3.07126,-3.0304 -5.92903,-6.1691 -8.74099,-9.439 -2.56626,-2.9238 -5.20988,-5.7715 -7.85618,-8.6227 -6.75155,-7.2884 -13.23769,-14.7823 -19.69558,-22.3307 -3.68805,-4.3084 -7.39931,-8.5962 -11.11904,-12.8773 -7.70524,-8.8788 -15.36735,-17.7847 -22.66858,-27.001 -2.22522,-2.7892 -4.47857,-5.554 -6.73618,-8.3172 -6.09986,-7.4703 -12.04051,-15.0402 -17.88501,-22.7108 -1.52504,-1.9735 -3.05053,-3.9464 -4.57643,-5.919 -20.36709,-26.4487 -39.77276,-53.577 -58.25841,-81.3721 -1.72661,-2.595 -3.45805,-5.1869 -5.18995,-7.7786 -10.29024,-15.4286 -20.22675,-31.0684 -29.84975,-46.92164 -0.34275,-0.56474 -0.6855,-1.12935 -1.03864,-1.7111 -15.91553,-26.25631 -30.64089,-53.16981 -44.77141,-80.42445 -1.71932,-3.31357 -3.45475,-6.6171 -5.21712,-9.90789 -12.08676,-22.58949 -22.61603,-45.87621 -32.91568,-69.31851 -1.8004,-4.09538 -3.61991,-8.18103 -5.46531,-12.2564 -14.20008,-31.48994 -26.5746,-63.88627 -38.24367,-96.39102 -0.43865,-1.21808 -0.43865,-1.21808 -0.88616,-2.46078 C 82.829018,633.79972 58.647439,541.86713 17.2963,269.54363 c -0.167325,-2.13332 -0.340357,-4.26607 -0.515201,-6.39878 -1.425137,-17.50611 -1.876444,-34.87271 -1.610327,-52.43157 18.960597,-11.17262 38.646895,-20.95983 58.578274,-30.26545 1.304171,-0.61136 2.608293,-1.22283 3.912366,-1.83439 22.865808,-10.70958 45.948818,-20.8051 69.310488,-30.38366 0.71884,-0.29492 1.4377,-0.58986 2.17833,-0.89372 84.42484,-34.59287 171.34577,-62.998084 446.92182,-118.21545 1.33638,-0.163627 1.33638,-0.163627 2.69974,-0.330548 23.60526,-2.876736 47.23055,-5.05793 70.95025,-6.747666 1.13617,-0.08106 2.27235,-0.162232 3.44297,-0.245802 3.30512,-0.23324 6.61061,-0.460504 9.91639,-0.684743 1.40605,-0.09735 1.40605,-0.09735 2.8405,-0.196553 18.40261,-1.212287 36.77964,-1.715182 55.21908,-1.721732 z m 27.73699,22.619007 c -2.10314,2.103132 -1.51279,6.752244 -1.71998,9.675327 -0.14332,1.888384 -0.28732,3.776718 -0.43192,5.664991 -0.0761,1.007834 -0.15234,2.015657 -0.23084,3.054029 -7.75519,101.175029 -28.57895,201.444019 -60.03975,297.867349 -0.29204,0.89516 -0.58405,1.79031 -0.88493,2.71261 -3.58389,10.93659 -7.37812,21.78207 -11.39442,32.56781 -0.47527,1.28477 -0.47527,1.28477 -0.96011,2.59548 -0.425,1.1381 -0.425,1.1381 -0.85858,2.2992 -0.70826,1.84925 -0.70826,1.84925 -0.60755,3.81963 -0.55451,-0.15333 -1.10902,-0.30666 -1.68032,-0.46464 -2.22631,-0.51199 -4.30369,-0.73787 -6.58157,-0.88802 -0.86761,-0.0596 -1.73525,-0.11891 -2.62915,-0.18019 -0.94418,-0.0617 -1.88836,-0.1235 -2.86113,-0.18713 -2.07079,-0.14327 -4.14156,-0.28727 -6.21226,-0.43189 -1.09915,-0.0762 -2.19831,-0.15237 -3.33076,-0.23084 -106.27611,-7.46769 -211.2597,-26.86582 -389.68169,-77.67427 -0.9318,-0.29829 -1.86359,-0.59659 -2.82362,-0.90391 -77.77864,-24.92998 -155.36336,-54.97954 -227.989971,-92.59586 -1.05794,-0.54637 -2.115893,-1.0927 -3.205877,-1.65562 -0.948533,-0.49829 -1.897065,-0.99658 -2.874336,-1.50998 -0.759277,-0.31849 -1.518566,-0.63696 -2.300851,-0.96511 -0.644358,0.32218 -1.288717,0.64437 -1.952607,0.97632 0.796635,0.52354 1.593284,1.04709 2.414066,1.5865 17.731878,11.70943 35.106772,23.94853 52.259005,36.48938 0.754624,0.55092 1.50926,1.10182 2.286769,1.66944 11.065362,8.08648 22.013422,16.31367 32.860192,24.69078 0.71861,0.55375 1.43724,1.1075 2.17761,1.67802 8.55396,6.59583 17.0344,13.26813 25.39346,20.10958 4.12787,3.37472 8.30527,6.67504 12.51844,9.9423 6.76824,5.2674 13.20867,10.88395 19.65958,16.53187 2.69835,2.34791 5.42971,4.65591 8.1651,6.96047 9.83663,8.3038 19.61602,16.63053 29.06794,25.37247 2.14296,1.97014 4.30622,3.90254 6.50616,5.80825 3.7916,3.28816 7.48513,6.68011 11.1772,10.07887 2.98539,2.74667 5.99115,5.46711 9.02011,8.16583 10.5337,9.4685 20.84617,19.1924 30.74882,29.32036 2.6739,2.71752 5.39945,5.29896 8.29573,7.77922 4.90087,4.23766 9.45683,8.81453 14.02557,13.40249 1.47838,1.48363 2.96193,2.96196 4.44606,4.43986 4.64952,4.64667 9.17174,9.34912 13.44872,14.34543 2.81518,3.19325 5.87084,6.14306 8.90902,9.12211 4.41238,4.36498 8.71431,8.74085 12.72248,13.48522 1.54391,1.77384 3.17368,3.41667 4.85101,5.06457 2.89685,2.85209 5.56551,5.83822 8.21851,8.91641 2.57987,2.93323 5.23341,5.7939 7.89052,8.65707 6.75007,7.28689 13.23625,14.77825 19.69127,22.32629 3.18891,3.72657 6.39697,7.43561 9.61813,11.13431 4.82172,5.53932 9.57865,11.11494 14.20098,16.82291 1.84781,2.2749 3.70653,4.5387 5.57563,6.79599 6.71189,8.10728 13.33695,16.26766 19.79544,24.57829 1.5188,1.95299 3.0424,3.90218 4.56641,5.85115 11.96265,15.31508 23.89879,30.63933 35.00967,46.58803 2.41206,3.45792 4.88658,6.86599 7.37711,10.26767 7.6252,10.43037 14.77513,21.15793 21.89345,31.93844 2.89278,4.37542 5.80534,8.73759 8.71761,13.10004 0.95607,1.43388 1.91205,2.86781 2.86789,4.30183 0.6645,0.99675 1.329,1.9935 2.01364,3.02045 -2.34397,4.25741 -5.23257,7.72087 -8.42062,11.34954 -3.613,4.15589 -7.17193,8.33366 -10.61733,12.63095 -4.24939,5.23835 -8.80173,10.15492 -13.40131,15.08314 -2.08635,2.23756 -4.12554,4.50649 -6.12477,6.82269 -4.35545,5.0255 -8.89432,9.88188 -13.4206,14.75281 -1.09586,1.18051 -2.1906,2.36209 -3.28388,3.54501 -9.77005,10.56839 -19.82718,20.8271 -30.01633,30.99103 -2.54576,2.54045 -5.08617,5.08618 -7.6262,7.63238 -1.64274,1.64211 -3.2858,3.28392 -4.92918,4.92538 -0.74662,0.74859 -1.49322,1.49719 -2.26247,2.26846 -4.00374,3.98649 -8.08486,7.81452 -12.38427,11.48132 -1.79771,1.58185 -3.48164,3.23925 -5.15777,4.94874 -2.87619,2.92145 -5.88693,5.61692 -8.99267,8.29096 -2.172,1.90513 -4.29633,3.85591 -6.41416,5.82089 -5.06114,4.6941 -10.24509,9.14227 -15.62515,13.47258 -2.75473,2.27903 -5.38995,4.65306 -8.0202,7.07434 -4.69789,4.31422 -9.5509,8.36921 -14.51489,12.37167 -1.80336,1.46681 -3.59095,2.95162 -5.37732,4.43912 -8.25864,6.86922 -16.63691,13.53027 -25.20086,20.01428 -3.60741,2.73341 -7.17414,5.51567 -10.73412,8.31043 -9.36154,7.34298 -18.92072,14.36868 -28.62316,21.25333 -0.73482,0.52162 -1.46965,1.04325 -2.22673,1.58068 -8.02189,5.68845 -16.06877,11.34152 -24.13349,16.96899 0.64435,0.32228 1.28871,0.64445 1.9526,0.97641 2.57589,-1.00764 2.57589,-1.00764 5.54129,-2.55905 1.18435,-0.58958 2.36881,-1.17881 3.55341,-1.76791 0.63314,-0.31812 1.26629,-0.63636 1.91864,-0.96415 77.3199,-38.74004 161.20181,-66.8152 333.62221,-106.00767 0.40186,1.27874 0.40186,1.27874 0.81183,2.58328 1.07326,3.08072 2.32194,5.8856 3.77223,8.8044 0.53006,1.07761 1.06014,2.15521 1.60628,3.26547 0.28304,0.57297 0.56608,1.14596 0.85768,1.7363 7.60334,15.42442 14.60496,31.09853 21.51472,46.84303 1.78986,4.07654 3.59973,8.1428 5.43629,12.19853 37.21659,82.51476 65.08773,169.9979 106.07006,339.8489 0.51328,2.5513 1.03237,5.101 1.55326,7.6507 15.91954,78.0536 26.9199,157.4781 31.18358,237.0514 0.64437,-0.3222 1.28873,-0.6444 1.95262,-0.9764 0.40039,-1.8503 0.40039,-1.8503 0.48719,-4.1138 0.0593,-0.8873 0.11877,-1.7747 0.17995,-2.689 0.0567,-0.9806 0.11339,-1.9614 0.17187,-2.9716 0.14044,-2.1247 0.28125,-4.2493 0.42236,-6.3739 0.0722,-1.1343 0.14434,-2.2686 0.2187,-3.4373 6.97443,-108.0864 26.38769,-215.4679 103.96087,-481.25861 0.2553,-0.68399 0.51061,-1.36799 0.77375,-2.0728 17.36658,-46.46271 36.7058,-92.13661 58.28116,-136.80656 0.54502,-1.12876 1.08991,-2.2575 1.65134,-3.42043 1.04216,-2.15194 2.08823,-4.30199 3.13872,-6.44988 0.69464,-1.43072 0.69464,-1.43072 1.40337,-2.89031 0.41008,-0.83834 0.82017,-1.67668 1.24261,-2.5404 1.00285,-1.95915 1.00285,-1.95915 0.87403,-3.98102 91.22118,17.39921 180.17038,41.01462 317.42108,98.24066 0.705,0.32228 1.41,0.64444 2.1362,0.97652 7.7247,3.53997 15.359,7.1691 22.8697,11.14866 1.0933,0.46175 1.0933,0.46175 2.2086,0.93294 0.6444,-0.32217 1.2887,-0.64445 1.9526,-0.97641 -0.7492,-0.52139 -0.7492,-0.52139 -1.5135,-1.05317 -22.6814,-15.79717 -44.9499,-32.03918 -66.7158,-49.07674 -1.9195,-1.50073 -3.8429,-2.99606 -5.7678,-4.48969 -6.6865,-5.20172 -13.2144,-10.55369 -19.6557,-16.05565 -2.7156,-2.31585 -5.4748,-4.57331 -8.2491,-6.81889 -10.0562,-8.19729 -19.7627,-16.78937 -29.2891,-25.59367 -2.1099,-1.93723 -4.2405,-3.83594 -6.4069,-5.70908 -4.4425,-3.8575 -8.7538,-7.85569 -13.0636,-11.85988 -2.2403,-2.08026 -4.4863,-4.15403 -6.7389,-6.22107 -10.0307,-9.24127 -19.6998,-18.83076 -29.3317,-28.48517 -2.6906,-2.69582 -5.3864,-5.38634 -8.0827,-8.07644 -1.7355,-1.73618 -3.4708,-3.47268 -5.2057,-5.2095 -0.7943,-0.79238 -1.5887,-1.58477 -2.4072,-2.40116 -4.0999,-4.11673 -8.052,-8.29965 -11.8203,-12.72325 -1.5756,-1.79298 -3.2284,-3.47073 -4.9324,-5.14154 -2.9427,-2.89704 -5.6619,-5.92953 -8.3559,-9.05751 -2.1765,-2.49194 -4.4142,-4.92207 -6.6547,-7.35661 -4.0252,-4.40821 -7.8128,-8.95826 -11.5594,-13.60344 -2.3127,-2.78707 -4.7199,-5.45587 -7.1735,-8.11934 -4.4403,-4.83504 -8.7668,-9.75838 -12.631,-15.0717 -0.482,-0.58773 -0.9639,-1.17547 -1.4606,-1.781 -0.492,-2.12422 -0.492,-2.12422 1.1518,-5.38112 0.8798,-1.32542 1.7776,-2.63907 2.6886,-3.94335 0.4839,-0.71862 0.9679,-1.43723 1.4665,-2.17762 1.064,-1.57446 2.1353,-3.14389 3.2129,-4.70894 1.7813,-2.58844 3.541,-5.1906 5.2973,-7.79614 7.4538,-11.0311 15.0529,-21.95647 22.7905,-32.79011 0.7348,-1.03263 0.7348,-1.03263 1.4844,-2.0861 7.4881,-10.51253 15.2168,-20.82271 23.068,-31.06631 2.8228,-3.6854 5.6107,-7.39422 8.3776,-11.12167 5.9156,-7.96666 12.1048,-15.67988 18.4023,-23.34694 1.8649,-2.27928 3.7031,-4.57932 5.5374,-6.88323 7.1203,-8.91887 14.4151,-17.68142 21.8048,-26.37692 1.3856,-1.6345 2.7654,-3.27368 4.1436,-4.91441 4.778,-5.68255 9.6298,-11.26679 14.6293,-16.75737 2.297,-2.59642 4.4767,-5.26711 6.6511,-7.96679 2.989,-3.69478 6.0732,-7.10493 9.4846,-10.40756 1.6635,-1.65578 3.1997,-3.37531 4.7329,-5.1523 5.0001,-5.78735 10.23,-11.36345 15.4377,-16.96328 0.58,-0.62549 1.1601,-1.25098 1.7577,-1.89542 6.936,-7.47549 13.9102,-14.88927 21.21,-22.01261 2.5799,-2.53499 5.0147,-5.12709 7.3627,-7.87909 4.6613,-5.38593 9.7289,-10.37047 14.7719,-15.39515 1.6958,-1.69053 3.3863,-3.3862 5.0763,-5.08245 5.014,-5.01662 10.0385,-9.93622 15.4381,-14.54137 3.1802,-2.79261 6.1089,-5.83706 9.0707,-8.85752 4.3649,-4.41238 8.7409,-8.71432 13.4851,-12.72249 1.7739,-1.5439 3.4167,-3.17368 5.0645,-4.851 2.8801,-2.92526 5.8957,-5.62346 9.0043,-8.30241 2.6148,-2.29189 5.1638,-4.65147 7.7151,-7.01337 4.8538,-4.48225 9.8306,-8.8002 14.8654,-13.07714 3.5918,-3.0589 7.1073,-6.18267 10.5795,-9.37788 4.2077,-3.85869 8.5502,-7.48772 12.9933,-11.07114 3.4177,-2.8132 6.7431,-5.72092 10.0719,-8.638 5.2649,-4.60286 10.6416,-9.0043 16.172,-13.28308 3.8122,-2.95898 7.5077,-6.0235 11.1645,-9.17194 5.4553,-4.68236 11.1128,-9.05814 16.8449,-13.39534 4.5582,-3.45343 9.0401,-6.98334 13.4816,-10.58514 7.6843,-6.20603 15.6377,-12.02776 23.6167,-17.84712 2.3392,-1.71201 4.6689,-3.4359 6.9958,-5.16467 19.8476,-14.73753 40.2008,-28.7873 60.7941,-42.46163 -0.6445,-0.32219 -1.2888,-0.64437 -1.9527,-0.97632 -2.2839,0.99132 -4.4432,2.04418 -6.6435,3.19969 -1.4129,0.7234 -2.826,1.44657 -4.2391,2.16951 -0.7509,0.38761 -1.5019,0.7752 -2.2757,1.17456 -16.7787,8.64282 -33.8302,16.4931 -51.1318,24.02251 -4.1359,1.80175 -8.2524,3.63906 -12.3537,5.51887 -78.424,35.85366 -161.4656,63.22628 -244.5605,85.95294 -0.873,0.23891 -1.7459,0.47781 -2.6452,0.72396 -99.4534,27.1567 -201.77986,45.57852 -322.09047,53.7365 -2.17893,0.19914 -4.12131,0.63442 -6.23156,1.18892 -0.17078,-0.58616 -0.34155,-1.1723 -0.51749,-1.7762 -1.80987,-6.13204 -3.80952,-12.17568 -5.91622,-18.21135 -0.68697,-1.9848 -1.37324,-3.96983 -2.05891,-5.95507 -0.35662,-1.03239 -0.71323,-2.06476 -1.08065,-3.12842 -7.92144,-22.99592 -15.20975,-46.08813 -21.66849,-69.53573 -0.22447,-0.81207 -0.44895,-1.62412 -0.68021,-2.46078 -23.39573,-84.78578 -38.06636,-171.47305 -44.2298,-259.188876 -0.32219,0 -0.64438,0 -0.9763,0 z"
     fill="#0087c0"
     id="path1"
     style="stroke-width:0.976305" />
</svg>
